<?xml version="1.0" encoding="utf-8"?>
<!-- Generator: Adobe Illustrator 25.0.0, SVG Export Plug-In . SVG Version: 6.00 Build 0)  -->
<svg version="1.1" id="Layer_1" xmlns="http://www.w3.org/2000/svg" xmlns:xlink="http://www.w3.org/1999/xlink" x="0px" y="0px"
	 viewBox="0 0 432 432" style="enable-background:new 0 0 432 432;" xml:space="preserve">
<style type="text/css">
	.st0{fill:url(#SVGID_1_);}
</style>
<linearGradient id="SVGID_1_" gradientUnits="userSpaceOnUse" x1="199.7899" y1="34.3915" x2="204.3699" y2="135.1535">
	<stop  offset="0" style="stop-color:#EC8436"/>
	<stop  offset="1" style="stop-color:#4E5A62"/>
</linearGradient>
<path class="st0" d="M152.06,27.02c-3.4,0.65-6.18,2.61-8.76,4.85c-2.16,1.75-4.64,2.21-7.34,1.81c-3.82-0.57-5.53,0.4-6.97,3.99
	c-0.32,0.8-0.6,1.61-0.83,2.44c-0.87,3-1.36,6.06-1.76,9.14c-0.14,1.08-0.37,2.12-0.87,3.11c-0.7,1.1-1.72,1.36-2.94,1.13
	c-0.29-0.06-0.6-0.12-0.9-0.17c-2.64-0.49-4.28,1.04-4.02,3.74c0.03,0.34,0.06,0.7,0.19,1.02c0.97,2.33,1.05,4.81,0.99,7.3
	c-0.05,1.55-0.17,3.11-0.36,4.65c-0.32,2.71-0.09,5.35,0.42,7.99c0.56,2.94,2.04,5.36,4.5,7c2.44,1.62,3.52,3.8,3.69,6.6
	c0.03,0.51,0.11,1.02,0.26,1.53c0.57,3.82,0.62,7.67,0.97,11.5c0.51,3.99,2.13,7.62,3.6,11.3c2.04,4.65,3.69,9.49,6.48,13.79
	c2.77,4.78,5.98,9.2,9.77,13.2c0.85,1.1,1.81,2.12,2.43,3.37c0.6,1.21,0.46,1.59-0.73,2.13c-4.71,2.15-6.79,6.09-7.05,11.01
	c-0.26,5.01,1.27,9.69,3.37,14.17c1.72,3.66,3.79,7.14,5.67,10.71c1.75,3.28,2.84,6.8,3.74,10.39c0.29,1.19,0.71,2.32,1.28,3.4
	c0.85,1.65,2.21,2.63,4,3.05c0.99,0.23,1.84,0.19,2.71-0.43c1.16-0.8,1.96-0.45,2.02,0.97c0.12,2.8,1.04,5.35,2.04,7.9
	c0.93,2.32,1.11,4.7,0.73,7.16c-0.37,2.33-0.9,4.61-1.48,6.88c-0.32,1.31-0.97,2.38-2.18,3.11c-1.14,0.7-1.96,1.75-2.6,2.89
	c-2.47,4.47-6.38,7.1-11.04,8.81c-9.86,3.66-19.68,7.44-29.48,11.22c-7.95,3.08-15.94,5.98-24.05,8.56
	c-7.42,2.35-14.84,4.82-21.36,9.18c-10.59,7.05-18.9,16-22.88,28.46c-2.67,8.33-4.59,16.83-6.45,25.37
	c-2.72,12.57-5.81,25.03-9.85,37.27c-3.43,10.43-5.8,21.19-8.41,31.86c-1.11,4.56-2.27,9.1-3.4,13.65
	c-0.12,0.51-0.26,1.02-0.68,1.39h60.55c0.99-3.83,2.46-7.98,4.24-8.38c0,0,0.43,0.77-0.51,3.77c-0.36,1.14-0.54,2.81-0.57,4.61
	l316.34,0.03c-0.36-0.03-0.68-0.15-0.99-0.29c-0.51-0.28-0.65-0.79-0.8-1.28c-1.45-4.81-1.47-4.82,1.11-9.07
	c1.11-1.84,2.01-3.76,2.77-5.75c0.99-2.6,1.44-5.29,0.77-8.05c-1.59-6.57-3.68-12.94-7.9-18.41c-1.58-2.02-3.05-4.11-4.62-6.14
	c-5.19-6.59-8.87-13.99-11.78-21.8c-1.98-5.3-3.52-10.73-4.68-16.26c-1.47-7.06-4.27-13.56-8.27-19.55
	c-2.81-4.22-5.7-8.41-7.84-13.05c-1.04-2.23-1.87-4.5-2.69-6.79c-1.24-3.48-3.4-5.98-6.99-7.2c-1.42-0.49-2.72-1.31-4.02-2.12
	c-2.91-1.78-6.11-2.95-9.24-4.22c-8.24-3.35-16.51-6.65-24.66-10.26c-2.89-1.28-5.69-2.8-8.47-4.31c-1.45-0.8-3-1.36-4.61-1.79
	c-2.26-0.62-4.31-1.5-5.83-3.45c-0.71-0.91-1.73-1.59-2.84-1.99c-3.6-1.28-6.48-3.66-9.32-6.09c-0.54-0.45-1.02-0.94-1.48-1.47
	c-1.98-2.26-4.58-3.03-7.45-3.17c-0.34-0.02-0.7-0.03-1.04,0c-1.45,0.19-2.38-0.29-2.86-1.78c-0.45-1.44-1.53-2.5-2.91-3.01
	c-3.23-1.19-5.67-3.49-8.21-5.66c-1.02-0.87-2.01-1.78-3.06-2.63c-0.9-0.73-1.04-1.53-0.49-2.52c0.66-1.17,1.44-2.27,2.23-3.37
	c2.32-3.23,4.41-6.55,4.96-10.62c0.12-0.93,0.66-1.38,1.64-1.19c0.68,0.12,1.38,0.22,2.06,0.32c3.82,0.6,5.21-2.1,5.35-4.51
	c0.06-0.91,0.03-1.82,0.14-2.74c0.59-4.79,2.44-9.17,4.92-13.22c3.54-5.77,5.89-11.9,6.55-18.63c0.29-3.11,0.42-6.25-0.48-9.31
	c-0.94-3.22-2.78-5.44-6.34-5.89c-1.16-0.15-1.51-1.21-0.66-2.09c0.9-0.91,1.38-1.99,1.72-3.15c1.68-4.5,3.86-8.76,5.77-13.15
	c2.1-4.61,3.82-9.34,5.21-14.19c0.97-3.15,1.38-6.4,1.51-9.68c0.4-2.13-0.09-4.24-0.25-6.34c-0.19-2.55-0.79-5.05-1.51-7.53
	c-1.34-4.88-3.48-9.44-6.07-13.79c-1.76-3.29-3.93-6.29-6.17-9.26c-1.41-1.85-3.08-3.51-4.47-5.38c-3.26-4.13-6.96-7.84-10.91-11.28
	c-6.17-5.22-12.98-9.35-20.44-12.49c-6.63-2.74-13.42-4.98-20.5-6.24c-4.36-0.79-8.75-1.21-13.19-1.39
	c-9.49-0.39-18.8,0.87-27.92,3.23c-4.85,1.25-8.89,0.54-12.46-2.92c-0.22-0.2-0.48-0.37-0.71-0.56c-2.71-2.18-5.56-4.08-8.98-4.98
	C157.19,26.99,155.47,26.37,152.06,27.02z"/>
</svg>
